<mxfile host="app.diagrams.net" modified="2023-05-30T20:16:11.504Z" agent="Mozilla/5.0 (Windows NT 10.0; Win64; x64; rv:109.0) Gecko/20100101 Firefox/113.0" etag="UqurRQzBuTXsOGT_d_pX" version="21.1.8" type="github">
  <diagram name="Page-1" id="197159a0-c6a4-9194-75a8-e4174976684c">
    <mxGraphModel dx="3222" dy="1562" grid="1" gridSize="10" guides="1" tooltips="1" connect="1" arrows="1" fold="1" page="1" pageScale="1.5" pageWidth="1169" pageHeight="826" background="none" math="0" shadow="0">
      <root>
        <mxCell id="0" style=";html=1;" />
        <mxCell id="1" style=";html=1;" parent="0" />
        <mxCell id="wr1fqfm169Wr6IHJtYNI-1" value="" style="whiteSpace=wrap;html=1;fillColor=#b1ddf0;fontSize=14;strokeColor=#10739e;verticalAlign=top;" vertex="1" parent="1">
          <mxGeometry x="20" y="89.5" width="1700" height="500.5" as="geometry" />
        </mxCell>
        <mxCell id="1257a543d1cacc4b-44" value="Customer Products (192.168.0.0/23)" style="whiteSpace=wrap;html=1;fillColor=#dae8fc;fontSize=14;strokeColor=none;verticalAlign=top;" parent="1" vertex="1">
          <mxGeometry x="1040" y="110" width="650" height="180" as="geometry" />
        </mxCell>
        <mxCell id="wr1fqfm169Wr6IHJtYNI-54" style="edgeStyle=orthogonalEdgeStyle;rounded=0;orthogonalLoop=1;jettySize=auto;html=1;exitX=0;exitY=0.5;exitDx=0;exitDy=0;" edge="1" parent="1" source="1257a543d1cacc4b-43" target="wr1fqfm169Wr6IHJtYNI-12">
          <mxGeometry relative="1" as="geometry" />
        </mxCell>
        <mxCell id="wr1fqfm169Wr6IHJtYNI-57" style="edgeStyle=orthogonalEdgeStyle;rounded=0;orthogonalLoop=1;jettySize=auto;html=1;exitX=1;exitY=0.25;exitDx=0;exitDy=0;" edge="1" parent="1" source="1257a543d1cacc4b-43" target="1257a543d1cacc4b-44">
          <mxGeometry relative="1" as="geometry">
            <Array as="points">
              <mxPoint x="1380" y="389" />
            </Array>
          </mxGeometry>
        </mxCell>
        <mxCell id="1257a543d1cacc4b-43" value="Internal Network (10.0.0.0/23)" style="whiteSpace=wrap;html=1;fillColor=#dae8fc;fontSize=14;strokeColor=none;verticalAlign=top;" parent="1" vertex="1">
          <mxGeometry x="393" y="330" width="967" height="236" as="geometry" />
        </mxCell>
        <mxCell id="wr1fqfm169Wr6IHJtYNI-2" value="&lt;div&gt;&lt;span style=&quot;&quot;&gt;fsn1-mongodb[i]&lt;/span&gt;&lt;/div&gt;&lt;div&gt;&lt;span style=&quot;&quot;&gt;CAX21&lt;/span&gt;&lt;/div&gt;&lt;div&gt;&lt;span style=&quot;&quot;&gt;MongoDB Database&lt;br&gt;&lt;/span&gt;&lt;/div&gt;" style="image;aspect=fixed;perimeter=ellipsePerimeter;html=1;align=center;shadow=0;dashed=0;spacingTop=3;image=img/lib/active_directory/database_server.svg;labelBackgroundColor=#DAE8FC;" vertex="1" parent="1">
          <mxGeometry x="463" y="390" width="41" height="50" as="geometry" />
        </mxCell>
        <mxCell id="wr1fqfm169Wr6IHJtYNI-3" value="&lt;div&gt;&lt;span style=&quot;&quot;&gt;fsn1-graf[i]&lt;/span&gt;&lt;/div&gt;&lt;div&gt;&lt;span style=&quot;&quot;&gt;CAX11&lt;/span&gt;&lt;/div&gt;&lt;div&gt;&lt;span style=&quot;&quot;&gt;Grafana Monitoring&lt;br&gt;&lt;/span&gt;&lt;/div&gt;" style="image;aspect=fixed;perimeter=ellipsePerimeter;html=1;align=center;shadow=0;dashed=0;spacingTop=3;image=img/lib/active_directory/cluster_server.svg;labelBackgroundColor=#DAE8FC;verticalAlign=top;horizontal=1;" vertex="1" parent="1">
          <mxGeometry x="583" y="390" width="50" height="50" as="geometry" />
        </mxCell>
        <mxCell id="wr1fqfm169Wr6IHJtYNI-4" value="&lt;div&gt;&lt;span style=&quot;&quot;&gt;fsn-zabbix[i]&lt;/span&gt;&lt;/div&gt;&lt;div&gt;&lt;span style=&quot;&quot;&gt;CAX21&lt;/span&gt;&lt;/div&gt;&lt;div&gt;&lt;span style=&quot;&quot;&gt;Zabbix Monitoring&lt;br&gt;&lt;/span&gt;&lt;/div&gt;" style="image;aspect=fixed;perimeter=ellipsePerimeter;html=1;align=center;shadow=0;dashed=0;spacingTop=3;image=img/lib/active_directory/cluster_server.svg;labelBackgroundColor=#DAE8FC;" vertex="1" parent="1">
          <mxGeometry x="708" y="390" width="50" height="50" as="geometry" />
        </mxCell>
        <mxCell id="wr1fqfm169Wr6IHJtYNI-5" value="&lt;div&gt;&lt;span style=&quot;&quot;&gt;fsn1-authsvc[i]&lt;/span&gt;&lt;/div&gt;&lt;div&gt;&lt;span style=&quot;&quot;&gt;CAX11&lt;/span&gt;&lt;/div&gt;&lt;div&gt;&lt;span style=&quot;&quot;&gt;Auth Service&lt;br&gt;&lt;/span&gt;&lt;/div&gt;" style="image;aspect=fixed;perimeter=ellipsePerimeter;html=1;align=center;shadow=0;dashed=0;spacingTop=3;image=img/lib/active_directory/web_server.svg;labelBackgroundColor=#DAE8FC;" vertex="1" parent="1">
          <mxGeometry x="833" y="390" width="40" height="50" as="geometry" />
        </mxCell>
        <mxCell id="wr1fqfm169Wr6IHJtYNI-8" value="&lt;div&gt;&lt;span style=&quot;&quot;&gt;fsn1-datanex[i]&lt;/span&gt;&lt;/div&gt;&lt;div&gt;&lt;span style=&quot;&quot;&gt;CAX21&lt;/span&gt;&lt;/div&gt;&lt;div&gt;&lt;span style=&quot;&quot;&gt;Data Nexus&lt;br&gt;&lt;/span&gt;&lt;/div&gt;" style="image;aspect=fixed;perimeter=ellipsePerimeter;html=1;align=center;shadow=0;dashed=0;spacingTop=3;image=img/lib/active_directory/generic_server.svg;labelBackgroundColor=#DAE8FC;" vertex="1" parent="1">
          <mxGeometry x="943" y="390" width="28.000000000000004" height="50" as="geometry" />
        </mxCell>
        <mxCell id="wr1fqfm169Wr6IHJtYNI-9" value="&lt;div&gt;&lt;span style=&quot;&quot;&gt;fsn1-emse[i]&lt;/span&gt;&lt;/div&gt;&lt;div&gt;&lt;span style=&quot;&quot;&gt;CAX11&lt;/span&gt;&lt;/div&gt;&lt;div&gt;&lt;span style=&quot;&quot;&gt;Email Service&lt;br&gt;&lt;/span&gt;&lt;/div&gt;" style="image;aspect=fixed;perimeter=ellipsePerimeter;html=1;align=center;shadow=0;dashed=0;spacingTop=3;image=img/lib/active_directory/cluster_server.svg;labelBackgroundColor=#DAE8FC;" vertex="1" parent="1">
          <mxGeometry x="1043" y="390" width="50" height="50" as="geometry" />
        </mxCell>
        <mxCell id="wr1fqfm169Wr6IHJtYNI-10" value="&lt;div&gt;&lt;span style=&quot;&quot;&gt;fsn1-staffdb[i]&lt;/span&gt;&lt;/div&gt;&lt;div&gt;&lt;span style=&quot;&quot;&gt;CAX11&lt;/span&gt;&lt;/div&gt;&lt;div&gt;&lt;span style=&quot;&quot;&gt;Staff Dashboard&lt;br&gt;&lt;/span&gt;&lt;/div&gt;" style="image;aspect=fixed;perimeter=ellipsePerimeter;html=1;align=center;shadow=0;dashed=0;spacingTop=3;image=img/lib/active_directory/web_server.svg;labelBackgroundColor=#DAE8FC;" vertex="1" parent="1">
          <mxGeometry x="1153" y="390" width="40" height="50" as="geometry" />
        </mxCell>
        <mxCell id="wr1fqfm169Wr6IHJtYNI-55" style="edgeStyle=orthogonalEdgeStyle;rounded=0;orthogonalLoop=1;jettySize=auto;html=1;exitX=1;exitY=0.5;exitDx=0;exitDy=0;entryX=0.001;entryY=0.526;entryDx=0;entryDy=0;entryPerimeter=0;" edge="1" parent="1" source="wr1fqfm169Wr6IHJtYNI-11" target="wr1fqfm169Wr6IHJtYNI-13">
          <mxGeometry relative="1" as="geometry" />
        </mxCell>
        <mxCell id="wr1fqfm169Wr6IHJtYNI-11" value="&lt;div&gt;&lt;span style=&quot;&quot;&gt;fsn1-wrguard[i]&lt;/span&gt;&lt;/div&gt;&lt;div&gt;&lt;span style=&quot;&quot;&gt;CAX11&lt;/span&gt;&lt;/div&gt;&lt;div&gt;&lt;span style=&quot;&quot;&gt;Wireguard (VPN)&lt;br&gt;&lt;/span&gt;&lt;/div&gt;" style="image;aspect=fixed;perimeter=ellipsePerimeter;html=1;align=center;shadow=0;dashed=0;spacingTop=3;image=img/lib/active_directory/cluster_server.svg;labelBackgroundColor=#DAE8FC;" vertex="1" parent="1">
          <mxGeometry x="1263" y="390" width="50" height="50" as="geometry" />
        </mxCell>
        <mxCell id="wr1fqfm169Wr6IHJtYNI-12" value="Public Network (172.16.0.0/24)" style="whiteSpace=wrap;html=1;fillColor=#dae8fc;fontSize=14;strokeColor=none;verticalAlign=top;" vertex="1" parent="1">
          <mxGeometry x="33" y="120" width="517" height="180" as="geometry" />
        </mxCell>
        <mxCell id="wr1fqfm169Wr6IHJtYNI-56" style="edgeStyle=orthogonalEdgeStyle;rounded=0;orthogonalLoop=1;jettySize=auto;html=1;exitX=0;exitY=0.5;exitDx=0;exitDy=0;" edge="1" parent="1" source="wr1fqfm169Wr6IHJtYNI-13" target="wr1fqfm169Wr6IHJtYNI-11">
          <mxGeometry relative="1" as="geometry" />
        </mxCell>
        <mxCell id="wr1fqfm169Wr6IHJtYNI-13" value="VPN for Clients (10.2.0.0/22)" style="whiteSpace=wrap;html=1;fillColor=#dae8fc;fontSize=14;strokeColor=none;verticalAlign=top;" vertex="1" parent="1">
          <mxGeometry x="1400" y="330" width="250" height="230" as="geometry" />
        </mxCell>
        <mxCell id="wr1fqfm169Wr6IHJtYNI-14" value="&lt;div&gt;&lt;span style=&quot;&quot;&gt;fsn1-dcbot[i]&lt;/span&gt;&lt;/div&gt;&lt;div&gt;&lt;span style=&quot;&quot;&gt;CAX11&lt;/span&gt;&lt;/div&gt;&lt;div&gt;&lt;span style=&quot;&quot;&gt;Discord Bot Agents&lt;br&gt;&lt;/span&gt;&lt;/div&gt;" style="image;aspect=fixed;perimeter=ellipsePerimeter;html=1;align=center;shadow=0;dashed=0;spacingTop=3;image=img/lib/active_directory/server_farm.svg;labelBackgroundColor=#DAE8FC;" vertex="1" parent="1">
          <mxGeometry x="1437" y="160" width="50" height="50" as="geometry" />
        </mxCell>
        <mxCell id="wr1fqfm169Wr6IHJtYNI-15" value="&lt;div&gt;&lt;span style=&quot;&quot;&gt;fsn1-compdb[i]&lt;/span&gt;&lt;/div&gt;&lt;div&gt;&lt;span style=&quot;&quot;&gt;CAX21&lt;/span&gt;&lt;/div&gt;&lt;div&gt;&lt;span style=&quot;&quot;&gt;Company Dashboards&lt;br&gt;&lt;/span&gt;&lt;/div&gt;" style="image;aspect=fixed;perimeter=ellipsePerimeter;html=1;align=center;shadow=0;dashed=0;spacingTop=3;image=img/lib/active_directory/server_farm.svg;labelBackgroundColor=#DAE8FC;" vertex="1" parent="1">
          <mxGeometry x="1300" y="160" width="50" height="50" as="geometry" />
        </mxCell>
        <mxCell id="wr1fqfm169Wr6IHJtYNI-16" value="&lt;div&gt;&lt;span style=&quot;&quot;&gt;fsn1-empdb[i]&lt;/span&gt;&lt;/div&gt;&lt;div&gt;&lt;span style=&quot;&quot;&gt;CAX21&lt;/span&gt;&lt;/div&gt;&lt;div&gt;&lt;span style=&quot;&quot;&gt;Employee Dashboards&lt;br&gt;&lt;/span&gt;&lt;/div&gt;" style="image;aspect=fixed;perimeter=ellipsePerimeter;html=1;align=center;shadow=0;dashed=0;spacingTop=3;image=img/lib/active_directory/server_farm.svg;labelBackgroundColor=#DAE8FC;" vertex="1" parent="1">
          <mxGeometry x="1160" y="160" width="50" height="50" as="geometry" />
        </mxCell>
        <mxCell id="wr1fqfm169Wr6IHJtYNI-18" value="&lt;span style=&quot;&quot;&gt;Staff Device&lt;/span&gt;" style="shape=image;html=1;verticalAlign=top;verticalLabelPosition=bottom;labelBackgroundColor=#DAE8FC;imageAspect=0;aspect=fixed;image=https://cdn0.iconfinder.com/data/icons/devices-42/512/Laptop-128.png;fontColor=#000000;" vertex="1" parent="1">
          <mxGeometry x="1420" y="380" width="48" height="48" as="geometry" />
        </mxCell>
        <mxCell id="wr1fqfm169Wr6IHJtYNI-19" value="&lt;span style=&quot;&quot;&gt;Staff Device&lt;/span&gt;" style="shape=image;html=1;verticalAlign=top;verticalLabelPosition=bottom;labelBackgroundColor=#DAE8FC;imageAspect=0;aspect=fixed;image=https://cdn0.iconfinder.com/data/icons/devices-42/512/Laptop-128.png;fontColor=#000000;" vertex="1" parent="1">
          <mxGeometry x="1500" y="380" width="48" height="48" as="geometry" />
        </mxCell>
        <mxCell id="wr1fqfm169Wr6IHJtYNI-20" value="&lt;span style=&quot;&quot;&gt;Staff Device&lt;/span&gt;" style="shape=image;html=1;verticalAlign=top;verticalLabelPosition=bottom;labelBackgroundColor=#DAE8FC;imageAspect=0;aspect=fixed;image=https://cdn0.iconfinder.com/data/icons/devices-42/512/Laptop-128.png;fontColor=#000000;" vertex="1" parent="1">
          <mxGeometry x="1580" y="380" width="48" height="48" as="geometry" />
        </mxCell>
        <mxCell id="wr1fqfm169Wr6IHJtYNI-22" value="&lt;div&gt;&lt;span style=&quot;&quot;&gt;fsn1-authapi[i]&lt;/span&gt;&lt;/div&gt;&lt;div&gt;&lt;span style=&quot;&quot;&gt;CAX11&lt;/span&gt;&lt;/div&gt;&lt;div&gt;&lt;span style=&quot;&quot;&gt;Auth API&lt;br&gt;&lt;/span&gt;&lt;/div&gt;" style="image;aspect=fixed;perimeter=ellipsePerimeter;html=1;align=center;shadow=0;dashed=0;spacingTop=3;image=img/lib/active_directory/web_server.svg;labelBackgroundColor=#DAE8FC;" vertex="1" parent="1">
          <mxGeometry x="80" y="168" width="40" height="50" as="geometry" />
        </mxCell>
        <mxCell id="wr1fqfm169Wr6IHJtYNI-23" value="&lt;div&gt;&lt;span style=&quot;&quot;&gt;fsn1-dashapi[i]&lt;/span&gt;&lt;/div&gt;&lt;div&gt;&lt;span style=&quot;&quot;&gt;CAX11&lt;/span&gt;&lt;/div&gt;&lt;div&gt;&lt;span style=&quot;&quot;&gt;Dashboard API&lt;br&gt;&lt;/span&gt;&lt;/div&gt;" style="image;aspect=fixed;perimeter=ellipsePerimeter;html=1;align=center;shadow=0;dashed=0;spacingTop=3;image=img/lib/active_directory/web_server.svg;labelBackgroundColor=#DAE8FC;" vertex="1" parent="1">
          <mxGeometry x="350" y="169" width="40" height="50" as="geometry" />
        </mxCell>
        <mxCell id="wr1fqfm169Wr6IHJtYNI-24" value="&lt;div&gt;&lt;span style=&quot;&quot;&gt;fsn1-transsvc[i]&lt;/span&gt;&lt;/div&gt;&lt;div&gt;&lt;span style=&quot;&quot;&gt;CAX11&lt;/span&gt;&lt;/div&gt;&lt;div&gt;&lt;span style=&quot;&quot;&gt;Translation Service&lt;br&gt;&lt;/span&gt;&lt;/div&gt;" style="image;aspect=fixed;perimeter=ellipsePerimeter;html=1;align=center;shadow=0;dashed=0;spacingTop=3;image=img/lib/active_directory/web_server.svg;labelBackgroundColor=#DAE8FC;" vertex="1" parent="1">
          <mxGeometry x="450" y="169" width="40" height="50" as="geometry" />
        </mxCell>
        <mxCell id="wr1fqfm169Wr6IHJtYNI-25" value="&lt;div&gt;&lt;span style=&quot;&quot;&gt;fsn1-pubweb[i]&lt;/span&gt;&lt;/div&gt;&lt;div&gt;&lt;span style=&quot;&quot;&gt;CAX21&lt;/span&gt;&lt;/div&gt;&lt;div&gt;&lt;span style=&quot;&quot;&gt;Public Website&lt;br&gt;&lt;/span&gt;&lt;/div&gt;" style="image;aspect=fixed;perimeter=ellipsePerimeter;html=1;align=center;shadow=0;dashed=0;spacingTop=3;image=img/lib/active_directory/web_server.svg;labelBackgroundColor=#DAE8FC;" vertex="1" parent="1">
          <mxGeometry x="260" y="169" width="40" height="50" as="geometry" />
        </mxCell>
        <mxCell id="wr1fqfm169Wr6IHJtYNI-26" value="&lt;div&gt;&lt;span style=&quot;&quot;&gt;fsn1-docs[i]&lt;/span&gt;&lt;/div&gt;&lt;div&gt;&lt;span style=&quot;&quot;&gt;CAX11&lt;/span&gt;&lt;/div&gt;&lt;div&gt;&lt;span style=&quot;&quot;&gt;Documentation&lt;br&gt;&lt;/span&gt;&lt;/div&gt;" style="image;aspect=fixed;perimeter=ellipsePerimeter;html=1;align=center;shadow=0;dashed=0;spacingTop=3;image=img/lib/active_directory/web_server.svg;labelBackgroundColor=#DAE8FC;" vertex="1" parent="1">
          <mxGeometry x="170" y="169" width="40" height="50" as="geometry" />
        </mxCell>
        <mxCell id="wr1fqfm169Wr6IHJtYNI-27" value="&lt;span style=&quot;&quot;&gt;Firewalls&lt;/span&gt;" style="image;aspect=fixed;perimeter=ellipsePerimeter;html=1;align=center;shadow=0;dashed=0;spacingTop=3;image=img/lib/active_directory/firewall.svg;labelBackgroundColor=#B1DDF0;" vertex="1" parent="1">
          <mxGeometry x="862" y="168" width="30.5" height="50" as="geometry" />
        </mxCell>
        <mxCell id="wr1fqfm169Wr6IHJtYNI-28" value="Load Balancer" style="verticalLabelPosition=bottom;html=1;verticalAlign=top;align=center;strokeColor=none;fillColor=#00BEF2;shape=mxgraph.azure.load_balancer_generic;pointerEvents=1;rotation=-90;" vertex="1" parent="1">
          <mxGeometry x="920" y="169" width="37.5" height="50" as="geometry" />
        </mxCell>
        <mxCell id="wr1fqfm169Wr6IHJtYNI-29" value="Load Balancer" style="verticalLabelPosition=bottom;html=1;verticalAlign=top;align=center;strokeColor=none;fillColor=#00BEF2;shape=mxgraph.azure.load_balancer_generic;pointerEvents=1;rotation=90;" vertex="1" parent="1">
          <mxGeometry x="800" y="169" width="37.5" height="50" as="geometry" />
        </mxCell>
        <mxCell id="wr1fqfm169Wr6IHJtYNI-31" value="&lt;span style=&quot;&quot;&gt;Staff Device&lt;/span&gt;" style="shape=image;html=1;verticalAlign=top;verticalLabelPosition=bottom;labelBackgroundColor=#DAE8FC;imageAspect=0;aspect=fixed;image=https://cdn0.iconfinder.com/data/icons/devices-42/512/Laptop-128.png;fontColor=#000000;" vertex="1" parent="1">
          <mxGeometry x="1452" y="460" width="48" height="48" as="geometry" />
        </mxCell>
        <mxCell id="wr1fqfm169Wr6IHJtYNI-32" value="&lt;span style=&quot;&quot;&gt;Staff Device&lt;/span&gt;" style="shape=image;html=1;verticalAlign=top;verticalLabelPosition=bottom;labelBackgroundColor=#DAE8FC;imageAspect=0;aspect=fixed;image=https://cdn0.iconfinder.com/data/icons/devices-42/512/Laptop-128.png;fontColor=#000000;" vertex="1" parent="1">
          <mxGeometry x="1540" y="460" width="48" height="48" as="geometry" />
        </mxCell>
        <mxCell id="wr1fqfm169Wr6IHJtYNI-37" value="" style="endArrow=classic;startArrow=classic;html=1;rounded=0;" edge="1" parent="1" source="1257a543d1cacc4b-43">
          <mxGeometry width="50" height="50" relative="1" as="geometry">
            <mxPoint x="862" y="310" as="sourcePoint" />
            <mxPoint x="877" y="250" as="targetPoint" />
          </mxGeometry>
        </mxCell>
        <mxCell id="wr1fqfm169Wr6IHJtYNI-38" value="" style="endArrow=classic;startArrow=classic;html=1;rounded=0;" edge="1" parent="1" target="1257a543d1cacc4b-44">
          <mxGeometry width="50" height="50" relative="1" as="geometry">
            <mxPoint x="990" y="194" as="sourcePoint" />
            <mxPoint x="1030" y="150" as="targetPoint" />
          </mxGeometry>
        </mxCell>
        <mxCell id="wr1fqfm169Wr6IHJtYNI-39" value="" style="endArrow=classic;startArrow=classic;html=1;rounded=0;" edge="1" parent="1" source="wr1fqfm169Wr6IHJtYNI-12">
          <mxGeometry width="50" height="50" relative="1" as="geometry">
            <mxPoint x="750" y="240" as="sourcePoint" />
            <mxPoint x="770" y="190" as="targetPoint" />
          </mxGeometry>
        </mxCell>
        <mxCell id="wr1fqfm169Wr6IHJtYNI-41" value="&lt;font style=&quot;font-size: 6px;&quot;&gt;DB&lt;/font&gt;" style="image;aspect=fixed;perimeter=ellipsePerimeter;html=1;align=center;shadow=0;dashed=0;spacingTop=3;image=img/lib/active_directory/database_server.svg;labelBackgroundColor=#DAE8FC;" vertex="1" parent="1">
          <mxGeometry x="1057.5" y="499.7" width="21" height="25.61" as="geometry" />
        </mxCell>
        <mxCell id="wr1fqfm169Wr6IHJtYNI-43" value="&lt;font style=&quot;font-size: 6px;&quot;&gt;Roundcube&lt;/font&gt;" style="image;aspect=fixed;perimeter=ellipsePerimeter;html=1;align=center;shadow=0;dashed=0;spacingTop=3;image=img/lib/active_directory/web_server.svg;labelBackgroundColor=#DAE8FC;" vertex="1" parent="1">
          <mxGeometry x="1030" y="500" width="20" height="25" as="geometry" />
        </mxCell>
        <mxCell id="wr1fqfm169Wr6IHJtYNI-44" value="&lt;font style=&quot;font-size: 6px;&quot;&gt;Server&lt;/font&gt;" style="image;aspect=fixed;perimeter=ellipsePerimeter;html=1;align=center;shadow=0;dashed=0;spacingTop=3;image=img/lib/active_directory/generic_server.svg;labelBackgroundColor=#DAE8FC;" vertex="1" parent="1">
          <mxGeometry x="1090" y="500" width="14" height="25" as="geometry" />
        </mxCell>
        <mxCell id="wr1fqfm169Wr6IHJtYNI-45" value="&lt;font style=&quot;font-size: 6px;&quot;&gt;WireguardUI&lt;/font&gt;" style="image;aspect=fixed;perimeter=ellipsePerimeter;html=1;align=center;shadow=0;dashed=0;spacingTop=3;image=img/lib/active_directory/web_server.svg;labelBackgroundColor=#DAE8FC;" vertex="1" parent="1">
          <mxGeometry x="1251" y="499.39" width="20" height="25" as="geometry" />
        </mxCell>
        <mxCell id="wr1fqfm169Wr6IHJtYNI-46" value="&lt;font style=&quot;font-size: 6px;&quot;&gt;Wireguard&lt;/font&gt;" style="image;aspect=fixed;perimeter=ellipsePerimeter;html=1;align=center;shadow=0;dashed=0;spacingTop=3;image=img/lib/active_directory/generic_server.svg;fontSize=5;labelBackgroundColor=#DAE8FC;" vertex="1" parent="1">
          <mxGeometry x="1311" y="499.39" width="14" height="25" as="geometry" />
        </mxCell>
        <mxCell id="wr1fqfm169Wr6IHJtYNI-47" value="&lt;font style=&quot;font-size: 6px;&quot;&gt;Zabbix DB&lt;br&gt;&lt;/font&gt;" style="image;aspect=fixed;perimeter=ellipsePerimeter;html=1;align=center;shadow=0;dashed=0;spacingTop=3;image=img/lib/active_directory/database_server.svg;labelBackgroundColor=#DAE8FC;" vertex="1" parent="1">
          <mxGeometry x="723.5" y="499.7" width="21" height="25.61" as="geometry" />
        </mxCell>
        <mxCell id="wr1fqfm169Wr6IHJtYNI-48" value="&lt;font style=&quot;font-size: 6px;&quot;&gt;Zabbix Web&lt;br&gt;&lt;/font&gt;" style="image;aspect=fixed;perimeter=ellipsePerimeter;html=1;align=center;shadow=0;dashed=0;spacingTop=3;image=img/lib/active_directory/web_server.svg;labelBackgroundColor=#DAE8FC;" vertex="1" parent="1">
          <mxGeometry x="688" y="500.31" width="20" height="25" as="geometry" />
        </mxCell>
        <mxCell id="wr1fqfm169Wr6IHJtYNI-49" value="&lt;font style=&quot;font-size: 6px;&quot;&gt;Zabbix Server&lt;br&gt;&lt;/font&gt;" style="image;aspect=fixed;perimeter=ellipsePerimeter;html=1;align=center;shadow=0;dashed=0;spacingTop=3;image=img/lib/active_directory/generic_server.svg;labelBackgroundColor=#DAE8FC;" vertex="1" parent="1">
          <mxGeometry x="770" y="500" width="14" height="25" as="geometry" />
        </mxCell>
        <mxCell id="wr1fqfm169Wr6IHJtYNI-50" value="&lt;font style=&quot;font-size: 6px;&quot;&gt;Database&lt;/font&gt;" style="image;aspect=fixed;perimeter=ellipsePerimeter;html=1;align=center;shadow=0;dashed=0;spacingTop=3;image=img/lib/active_directory/database_server.svg;labelBackgroundColor=#DAE8FC;" vertex="1" parent="1">
          <mxGeometry x="640" y="498.46999999999997" width="21" height="25.61" as="geometry" />
        </mxCell>
        <mxCell id="wr1fqfm169Wr6IHJtYNI-51" value="&lt;font style=&quot;font-size: 6px;&quot;&gt;Prometheus&lt;/font&gt;" style="image;aspect=fixed;perimeter=ellipsePerimeter;html=1;align=center;shadow=0;dashed=0;spacingTop=3;image=img/lib/active_directory/web_server.svg;labelBackgroundColor=#DAE8FC;" vertex="1" parent="1">
          <mxGeometry x="598" y="499.08" width="20" height="25" as="geometry" />
        </mxCell>
        <mxCell id="wr1fqfm169Wr6IHJtYNI-52" value="&lt;font style=&quot;font-size: 6px;&quot;&gt;Grafana&lt;/font&gt;" style="image;aspect=fixed;perimeter=ellipsePerimeter;html=1;align=center;shadow=0;dashed=0;spacingTop=3;image=img/lib/active_directory/web_server.svg;labelBackgroundColor=#DAE8FC;" vertex="1" parent="1">
          <mxGeometry x="560" y="499.09" width="20" height="25" as="geometry" />
        </mxCell>
        <mxCell id="wr1fqfm169Wr6IHJtYNI-75" value="&lt;span style=&quot;&quot;&gt;Hetzner Cloud&lt;br&gt;&lt;/span&gt;" style="image;aspect=fixed;perimeter=ellipsePerimeter;html=1;align=center;shadow=0;dashed=0;spacingTop=3;image=img/lib/active_directory/internet_cloud.svg;direction=east;labelBackgroundColor=#B1DDF0;" vertex="1" parent="1">
          <mxGeometry x="850" y="100" width="50" height="31.5" as="geometry" />
        </mxCell>
      </root>
    </mxGraphModel>
  </diagram>
</mxfile>
